<?xml version="1.0" encoding="utf-8"?>
<svg id="svg2" viewBox="0 32.189 500 505.947" xmlns="http://www.w3.org/2000/svg">
  <desc>Source: openclipart.org/detail/209545</desc>
  <path fill-rule="evenodd" clip-rule="evenodd" d="M 374.834 237.64 L 125.122 237.64 C 98.004 237.64 76.015 259.628 76.015 286.748 C 76.015 313.867 98.004 335.855 125.122 335.855 L 374.834 335.855 C 401.955 335.855 423.943 313.867 423.943 286.748 C 423.943 259.628 401.955 237.64 374.834 237.64 Z M 125.122 213.086 C 84.437 213.086 51.462 246.063 51.462 286.748 C 51.462 327.421 84.437 360.409 125.122 360.409 L 374.834 360.409 C 415.521 360.409 448.496 327.421 448.496 286.748 C 448.496 246.063 415.521 213.086 374.834 213.086 L 125.122 213.086 Z" style="stroke-width: 1; fill: rgb(255, 216, 255);"/>
  <path d="M 397.694 268.32 C 407.897 268.32 416.158 276.57 416.158 286.735 C 416.158 296.913 407.897 305.15 397.694 305.15 C 387.492 305.15 379.231 296.913 379.231 286.735 C 379.231 276.57 387.492 268.32 397.694 268.32 Z" style="stroke-width: 1; fill: rgb(255, 216, 255);"/>
  <path d="M 360.765 278.657 C 365.86 278.657 369.997 282.77 369.997 287.865 C 369.997 292.948 365.86 297.072 360.765 297.072 C 355.671 297.072 351.533 292.948 351.533 287.865 C 351.533 282.77 355.671 278.657 360.765 278.657 Z" style="stroke-width: 1; fill: rgb(255, 216, 255);"/>
  <path fill-rule="evenodd" clip-rule="evenodd" d="M 301.333 274.459 L 120.629 274.459 C 113.852 274.459 108.352 279.958 108.352 286.735 C 108.352 293.525 113.852 299.012 120.629 299.012 L 301.333 299.012 C 308.123 299.012 313.61 293.525 313.61 286.735 C 313.61 279.958 308.123 274.459 301.333 274.459 Z M 83.799 286.735 C 83.799 307.079 100.287 323.567 120.629 323.567 L 301.333 323.567 C 321.676 323.567 338.163 307.079 338.163 286.735 C 338.163 266.393 321.676 249.905 301.333 249.905 L 120.629 249.905 C 100.287 249.905 83.799 266.393 83.799 286.735 Z" style="stroke-width: 1; fill: rgb(255, 216, 255);"/>
  <path fill-rule="evenodd" clip-rule="evenodd" d="M 384.214 462.296 C 347.003 490.79 300.461 507.72 249.978 507.72 C 127.934 507.72 28.994 408.78 28.994 286.735 C 28.994 232.19 48.761 182.26 81.515 143.71 L 384.214 462.296 Z M 402.875 446.286 L 98.444 125.884 C 138.013 88.598 191.332 65.751 249.978 65.751 C 372.023 65.751 470.963 164.691 470.963 286.735 C 470.963 349.459 444.837 406.067 402.875 446.286 Z M 495.516 286.735 C 495.516 422.346 385.589 532.273 249.978 532.273 C 114.369 532.273 4.441 422.346 4.441 286.735 C 4.441 151.137 114.369 41.198 249.978 41.198 C 385.589 41.198 495.516 151.137 495.516 286.735 Z" style="stroke-width: 1; fill: rgb(255, 216, 255);"/>
</svg>